<?xml version="1.0" encoding="utf-8"?>
<!-- Generator: Adobe Illustrator 19.0.0, SVG Export Plug-In . SVG Version: 6.00 Build 0)  -->
<svg version="1.1" id="Слой_1" xmlns="http://www.w3.org/2000/svg" xmlns:xlink="http://www.w3.org/1999/xlink" x="0px" y="0px"
	 viewBox="-386 3489.9 225.3 23.1" style="enable-background:new -386 3489.9 225.3 23.1;" xml:space="preserve">
<style type="text/css">
	.st0{fill:#D0AA75;}
</style>
<g>
	<polygon class="st0" points="-370.5,3503.8 -361,3503.8 -361,3499.8 -370.5,3499.8 -370.5,3495.3 -360.1,3495.3 -360.1,3491.3 
		-375,3491.3 -375,3512.5 -359.9,3512.5 -359.9,3508.5 -370.5,3508.5 	"/>
</g>
<g>
	<polygon class="st0" points="-329.5,3507.2 -335.2,3491.3 -340.1,3491.3 -331.8,3512.5 -327.1,3512.5 -318.8,3491.3 -323.8,3491.3 
			"/>
</g>
<g>
	<polygon class="st0" points="-293.6,3503.8 -284,3503.8 -284,3499.8 -293.6,3499.8 -293.6,3495.3 -283.1,3495.3 -283.1,3491.3 
		-298.1,3491.3 -298.1,3512.5 -283,3512.5 -283,3508.5 -293.6,3508.5 	"/>
</g>
<g>
	<path class="st0" d="M-247,3502.2c0,1,0,2.1,0.1,2.9l-9.9-13.9h-4.3v21.2h4.6v-10.9c0-1,0-2.1-0.1-2.9l9.9,13.9h4.3v-21.2h-4.6
		V3502.2z"/>
</g>
<g>
	<polygon class="st0" points="-221.5,3495.4 -215,3495.4 -215,3512.5 -210.5,3512.5 -210.5,3495.4 -203.9,3495.4 -203.9,3491.3 
		-221.5,3491.3 	"/>
</g>
<g>
	<path class="st0" d="M-179.3,3496.9c0-1.3,1.1-2,3.5-2c2.4,0,4.8,0.6,6.6,1.9v-4.3c-1.8-1-4.4-1.6-6.9-1.6c-4.2,0-7.8,2-7.8,6.1
		c0,7.5,11.6,6.1,11.6,10c0,1.5-1.5,2.1-4,2.1c-2.4,0-5.1-0.6-7.5-2.3v4.4c2.2,1.2,4.9,1.9,7.8,1.9c4.5,0,8.3-1.5,8.3-6.3
		C-167.7,3499.1-179.3,3500.5-179.3,3496.9z"/>
</g>
</svg>
