<?xml version="1.0" encoding="utf-8"?>
<!-- Generator: Adobe Illustrator 19.0.0, SVG Export Plug-In . SVG Version: 6.00 Build 0)  -->
<svg version="1.1" id="Слой_1" xmlns="http://www.w3.org/2000/svg" xmlns:xlink="http://www.w3.org/1999/xlink" x="0px" y="0px"
	 viewBox="0 0 225.3 23.1" style="enable-background:new 0 0 225.3 23.1;" xml:space="preserve">
<style type="text/css">
	.st0{fill:#FFFFFF;}
</style>
<polygon id="XMLID_72_" class="st0" points="16.6,0 16.6,4.4 5.3,4.4 5.3,9.3 15.6,9.3 15.6,13.6 5.3,13.6 5.3,18.7 16.8,18.7 
	16.8,23.1 0.4,23.1 0.4,0 "/>
<polygon id="XMLID_71_" class="st0" points="47.2,23.1 38.2,0 43.6,0 49.7,17.3 55.9,0 61.2,0 52.3,23.1 "/>
<polygon id="XMLID_70_" class="st0" points="99.9,0 99.9,4.4 88.6,4.4 88.6,9.3 98.9,9.3 98.9,13.6 88.6,13.6 88.6,18.7 100.1,18.7 
	100.1,23.1 83.7,23.1 83.7,0 "/>
<path id="XMLID_69_" class="st0" d="M123.8,23.1V0h4.6l10.7,15.1c-0.1-1-0.1-2.1-0.1-3.2V0h4.9v23.1h-4.6L128.7,8
	c0.1,1,0.1,2.1,0.1,3.2v11.9H123.8z"/>
<polygon id="XMLID_68_" class="st0" points="185.8,0 185.8,4.4 178.7,4.4 178.7,23.1 173.8,23.1 173.8,4.4 166.7,4.4 166.7,0 "/>
<path id="XMLID_67_" class="st0" d="M215.9-0.5c2.7,0,5.5,0.7,7.5,1.8v4.6c-1.9-1.4-4.5-2.1-7.1-2c-2.5,0-3.8,0.7-3.8,2.1
	c0,4,12.6,2.5,12.6,10.7c0,5.2-4.2,6.8-9,6.8c-3.2,0-6.2-0.8-8.5-2.1v-4.7c2.6,1.7,5.5,2.4,8.2,2.4c2.7,0,4.3-0.6,4.3-2.2
	c0-4.3-12.6-2.7-12.6-10.9C207.4,1.6,211.3-0.5,215.9-0.5"/>
</svg>
