<?xml version="1.0" encoding="utf-8"?>
<!-- Generator: Adobe Illustrator 19.0.0, SVG Export Plug-In . SVG Version: 6.00 Build 0)  -->
<svg version="1.1" id="Слой_1" xmlns="http://www.w3.org/2000/svg" xmlns:xlink="http://www.w3.org/1999/xlink" x="0px" y="0px"
	 viewBox="0 0 309 246" style="enable-background:new 0 0 309 246;" xml:space="preserve">
<style type="text/css">
	.st0{clip-path:url(#SVGID_2_);fill:#5C5C5C;}
	.st1{clip-path:url(#SVGID_2_);fill:#D1AB75;}
	.st2{clip-path:url(#SVGID_2_);}
</style>
<g>
	<defs>
		<rect id="SVGID_1_" x="-106" y="-167.3" width="499.3" height="595.3"/>
	</defs>
	<clipPath id="SVGID_2_">
		<use xlink:href="#SVGID_1_"  style="overflow:visible;"/>
	</clipPath>
	<path class="st0" d="M218.2,159.8c0.1,2.2,0,4.4-0.3,6.6c-1,8.3-4.5,16.4-10.4,22.9c-0.8,0.9-1.6,1.7-2.4,2.5
		c-0.5,0.5-1,0.9-1.5,1.4l-1.8,1.5h-1.8v-34.9H218.2z"/>
	<path class="st0" d="M197.7,189.5L197.7,189.5l-0.1,2.3c0.9-0.8,1.7-1.6,2.4-2.5C199.3,189.4,198.5,189.5,197.7,189.5 M210.4,156
		v10.4c0.3-2.2,0.4-4.4,0.3-6.6C210.7,158.5,210.6,157.2,210.4,156"/>
	<path class="st1" d="M293.6,194.7h-99.5l1.8-1.5c0.5-0.4,1-0.9,1.5-1.4c0.9-0.8,1.7-1.6,2.4-2.5c5.9-6.6,9-14.6,10-22.9
		c0.3-2.2,0.5-9.1,0.4-10.4V86.5c0-7-5.7-12.7-12.7-12.7h-0.1H257c-3.5,0-6.7,1.4-9,3.7c-2.3,2.3-3.7,5.5-3.7,9v103h12.3
		c4.6,0,9.2-1,13.7-3.1c4.5-2,8.4-4.6,11.7-7.8c3.3-3.2,6-6.6,8.2-10.4c2.2-3.8,3.5-7.4,3.9-10.9C294,157.1,293.6,194.7,293.6,194.7
		"/>
	<path class="st2" d="M210.7,159.8c0.1,2.2,0,4.4-0.3,6.6c-1,8.3-4.5,16.4-10.4,22.9c-0.8,0.9-1.6,1.7-2.4,2.5
		c-0.5,0.5-1,0.9-1.5,1.4l-1.8,1.5l-0.1,0.1h-3.7c1-2.5,1.6-5.3,1.6-8c0.1-3-0.5-5.9-1.6-8.7c-0.8-2-2-3.9-3.3-5.6l-26.7-33.5
		l-0.1,0l-50.2-62.2C96.2,59,98.6,33.2,115.8,18.4L127,8.8c-4.7,4.3-7.1,10.1-7.3,16.1c-0.1,3,0.5,5.9,1.6,8.7c0.8,2,2,3.9,3.3,5.6
		l26.7,33.5l0.1,0l22.4,27.9l27.7,34.3c5,6.3,8,13.6,8.9,21.1C210.6,157.2,210.7,158.5,210.7,159.8"/>
	<path class="st1" d="M134.7,77.5c2.3-2.3,5.5-3.7,9-3.7H84.1h0.1c7,0,12.7,5.7,12.7,12.7V124h-0.1v5.2h0.1v47.6
		c0,2.2-0.6,4.3-1.5,6.1c-2.2,4-6.4,6.7-11.2,6.7h-0.1h59.6c-7,0-12.7-5.7-12.7-12.7V86.5C131,82.9,132.4,79.8,134.7,77.5
		 M55.6,176.8v-43.7h32v-7.5h-32V86.5c0-3.5,1.4-6.7,3.7-9c2.3-2.3,5.5-3.7,9-3.7H8.7h0.1c7,0,12.7,5.7,12.7,12.7v90.3
		c0,7-5.7,12.7-12.7,12.7H8.7h59.6C61.3,189.5,55.6,183.8,55.6,176.8"/>
	<path class="st2" d="M197.6,73.7L197.6,73.7c7.1,0,12.8,5.7,12.8,12.7v29.4l36.1-36.3l0,0c0.5-0.8,1-1.4,1.7-2.1
		c2.3-2.3,5.5-3.7,9-3.7H197.6z"/>
	<path class="st2" d="M161.9,183.3c-5.5,4.4-11.7,7.5-18.1,9.3c-4,1.2-8.2,1.9-12.3,2c-1.6,0.1-3.2,0.1-4.7,0
		c-11.2-0.5-22.2-4.5-31.3-11.8c-2.8-2.3-5.4-4.9-7.8-7.8c-10.8-13.4-14.1-30.4-10.4-45.9c0.4-1.7,0.9-3.5,1.5-5.2
		c3.1-9,8.8-17.4,16.7-23.8c-7.2,5.9-8.6,16.4-3.1,23.8c0.2,0.3,0.4,0.5,0.6,0.8l3.6,4.4l0.5,0.6l34.1,42l6.9,8.5
		C143.8,187.5,154.4,188.8,161.9,183.3"/>
	<polygon class="st2" points="46.2,216.5 46.2,220.8 34.9,220.8 34.9,225.7 45.2,225.7 45.2,230 34.9,230 34.9,235.2 46.4,235.2 
		46.4,239.5 29.9,239.5 29.9,216.5 	"/>
	<polygon class="st2" points="76.8,239.5 67.8,216.5 73.1,216.5 79.3,233.7 85.5,216.5 90.8,216.5 81.8,239.5 	"/>
	<polygon class="st2" points="129.5,216.5 129.5,220.8 118.2,220.8 118.2,225.7 128.5,225.7 128.5,230 118.2,230 118.2,235.2 
		129.7,235.2 129.7,239.5 113.3,239.5 113.3,216.5 	"/>
	<path class="st2" d="M153.4,239.5v-23.1h4.6l10.7,15.1c-0.1-1-0.1-2.1-0.1-3.2v-11.9h4.9v23.1H169l-10.7-15.1
		c0.1,1,0.1,2.1,0.1,3.2v11.9H153.4z"/>
	<polygon class="st2" points="215.4,216.5 215.4,220.9 208.3,220.9 208.3,239.5 203.4,239.5 203.4,220.9 196.3,220.9 196.3,216.5 	
		"/>
	<path class="st2" d="M245.5,216c2.7,0,5.5,0.7,7.5,1.8v4.6c-1.9-1.4-4.5-2.1-7.1-2c-2.5,0-3.8,0.7-3.8,2.1c0,4,12.6,2.5,12.6,10.7
		c0,5.2-4.2,6.8-9,6.8c-3.2,0-6.2-0.8-8.5-2.1v-4.7c2.6,1.7,5.5,2.4,8.2,2.4c2.7,0,4.3-0.6,4.3-2.2c0-4.3-12.6-2.7-12.6-10.9
		C237,218.1,240.9,216,245.5,216"/>
</g>
</svg>
