<?xml version="1.0" encoding="utf-8"?>
<!-- Generator: Adobe Illustrator 19.0.0, SVG Export Plug-In . SVG Version: 6.00 Build 0)  -->
<svg version="1.1" id="Слой_1" xmlns="http://www.w3.org/2000/svg" xmlns:xlink="http://www.w3.org/1999/xlink" x="0px" y="0px"
	 viewBox="0 0 287.6 232.2" style="enable-background:new 0 0 287.6 232.2;" xml:space="preserve">
<style type="text/css">
	.st0{clip-path:url(#SVGID_2_);fill:#5C5C5C;}
	.st1{clip-path:url(#SVGID_2_);fill:#D1AB75;}
	.st2{clip-path:url(#SVGID_2_);fill:#FFFFFF;}
</style>
<g>
	<defs>
		<rect id="SVGID_1_" x="-114.6" y="-161.7" width="499.3" height="595.3"/>
	</defs>
	<clipPath id="SVGID_2_">
		<use xlink:href="#SVGID_1_"  style="overflow:visible;"/>
	</clipPath>
	<path class="st0" d="M211.1,152.4c0.1,2.2,0,4.4-0.3,6.6c-1,8.3-4.5,16.4-10.4,22.9c-0.8,0.9-1.6,1.7-2.4,2.5
		c-0.5,0.5-1,0.9-1.5,1.4l-1.8,1.5h-1.8v-34.9H211.1z"/>
	<path class="st0" d="M190.6,182.1L190.6,182.1l-0.1,2.3c0.9-0.8,1.7-1.6,2.4-2.5C192.2,182.1,191.4,182.1,190.6,182.1 M203.3,148.6
		V159c0.3-2.2,0.4-4.4,0.3-6.6C203.6,151.1,203.5,149.9,203.3,148.6"/>
	<path class="st1" d="M286.5,187.3H187l1.8-1.5c0.5-0.4,1-0.9,1.5-1.4c0.9-0.8,1.7-1.6,2.4-2.5c5.9-6.6,9-14.6,10-22.9
		c0.3-2.2,0.5-9.1,0.4-10.4V79.1c0-7-5.7-12.7-12.7-12.7h-0.1h59.6c-3.5,0-6.7,1.4-9,3.7c-2.3,2.3-3.7,5.5-3.7,9v103h12.3
		c4.6,0,9.2-1,13.7-3.1c4.5-2,8.4-4.6,11.7-7.8c3.3-3.2,6-6.6,8.2-10.4c2.2-3.8,3.5-7.4,3.9-10.9
		C286.9,149.7,286.5,187.3,286.5,187.3"/>
	<path class="st2" d="M203.6,152.4c0.1,2.2,0,4.4-0.3,6.6c-1,8.3-4.5,16.4-10.4,22.9c-0.8,0.9-1.6,1.7-2.4,2.5
		c-0.5,0.5-1,0.9-1.5,1.4l-1.8,1.5l-0.1,0.1h-3.7c1-2.5,1.6-5.3,1.6-8c0.1-3-0.5-5.9-1.6-8.7c-0.8-2-2-3.9-3.3-5.6l-26.7-33.5
		l-0.1,0l-50.2-62.2C89.1,51.7,91.5,25.9,108.6,11l11.2-9.6c-4.7,4.3-7.1,10.1-7.3,16.1c-0.1,3,0.5,5.9,1.6,8.7c0.8,2,2,3.9,3.3,5.6
		l26.7,33.5l0.1,0l22.4,27.9l27.7,34.3c5,6.3,8,13.6,8.9,21.1C203.5,149.9,203.6,151.1,203.6,152.4"/>
	<path class="st1" d="M127.6,70.1c2.3-2.3,5.5-3.7,9-3.7H77H77c7,0,12.7,5.7,12.7,12.7v37.5h-0.1v5.2h0.1v47.6
		c0,2.2-0.6,4.3-1.5,6.1c-2.2,4-6.4,6.7-11.2,6.7H77h59.6c-7,0-12.7-5.7-12.7-12.7V79.1C123.9,75.6,125.3,72.4,127.6,70.1
		 M48.4,169.4v-43.7h32v-7.5h-32V79.1c0-3.5,1.4-6.7,3.7-9c2.3-2.3,5.5-3.7,9-3.7H1.5h0.1c7,0,12.7,5.7,12.7,12.7v90.3
		c0,7-5.7,12.7-12.7,12.7H1.5h59.6C54.1,182.1,48.4,176.4,48.4,169.4"/>
	<path class="st2" d="M190.5,66.4L190.5,66.4c7.1,0,12.8,5.7,12.8,12.7v29.4l36.1-36.3l0,0c0.5-0.8,1-1.4,1.7-2.1
		c2.3-2.3,5.5-3.7,9-3.7H190.5z"/>
	<path class="st2" d="M154.7,175.9c-5.5,4.4-11.7,7.5-18.1,9.3c-4,1.2-8.2,1.9-12.3,2c-1.6,0.1-3.2,0.1-4.7,0
		c-11.2-0.5-22.2-4.5-31.3-11.8c-2.8-2.3-5.4-4.9-7.8-7.8c-10.8-13.4-14.1-30.4-10.4-45.9c0.4-1.7,0.9-3.5,1.5-5.2
		c3.1-9,8.8-17.4,16.7-23.8c-7.2,5.9-8.6,16.4-3.1,23.8c0.2,0.3,0.4,0.5,0.6,0.8l3.6,4.4l0.5,0.6l34.1,42l6.9,8.5
		C136.7,180.2,147.2,181.5,154.7,175.9"/>
	<polygon class="st2" points="39,209.1 39,213.5 27.7,213.5 27.7,218.4 38,218.4 38,222.7 27.7,222.7 27.7,227.8 39.2,227.8 
		39.2,232.2 22.8,232.2 22.8,209.1 	"/>
	<polygon class="st2" points="69.6,232.2 60.6,209.1 66,209.1 72.1,226.4 78.3,209.1 83.7,209.1 74.7,232.2 	"/>
	<polygon class="st2" points="122.4,209.1 122.4,213.5 111.1,213.5 111.1,218.4 121.4,218.4 121.4,222.7 111.1,222.7 111.1,227.8 
		122.6,227.8 122.6,232.2 106.1,232.2 106.1,209.1 	"/>
	<path class="st2" d="M146.3,232.2v-23.1h4.6l10.7,15.1c-0.1-1-0.1-2.1-0.1-3.2v-11.9h4.9v23.1h-4.6l-10.7-15.1
		c0.1,1,0.1,2.1,0.1,3.2v11.9H146.3z"/>
	<polygon class="st2" points="208.2,209.1 208.2,213.6 201.1,213.6 201.1,232.2 196.2,232.2 196.2,213.6 189.2,213.6 189.2,209.1 	
		"/>
	<path class="st2" d="M238.3,208.6c2.7,0,5.5,0.7,7.5,1.8v4.6c-1.9-1.4-4.5-2.1-7.1-2c-2.5,0-3.8,0.7-3.8,2.1
		c0,4,12.6,2.5,12.6,10.7c0,5.2-4.2,6.8-9,6.8c-3.2,0-6.2-0.8-8.5-2.1v-4.7c2.6,1.7,5.5,2.4,8.2,2.4c2.7,0,4.3-0.6,4.3-2.2
		c0-4.3-12.6-2.7-12.6-10.9C229.9,210.8,233.8,208.6,238.3,208.6"/>
</g>
</svg>
