<?xml version="1.0" encoding="utf-8"?>
<!-- Generator: Adobe Illustrator 19.0.0, SVG Export Plug-In . SVG Version: 6.00 Build 0)  -->
<svg version="1.1" id="Слой_1" xmlns="http://www.w3.org/2000/svg" xmlns:xlink="http://www.w3.org/1999/xlink" x="0px" y="0px"
	 viewBox="-355 3408 287.2 186" style="enable-background:new -355 3408 287.2 186;" xml:space="preserve">
<style type="text/css">
	.st0{fill:#D0AA75;}
</style>
<g>
	<path class="st0" d="M-232.3,3561.9v-48.4l-5.3-6.6l-18-22.3c-0.7-0.9-1.3-1.7-1.9-2.6h-15.7c6.1,0,11.1,5,11.1,11.1v31.5
		L-232.3,3561.9z"/>
</g>
<path class="st0" d="M-81.7,3587.6l0.3-32.6c-0.3,3-1.5,6.2-3.4,9.5c-1.9,3.3-4.3,6.3-7.2,9.1c-2.8,2.8-6.3,5-10.2,6.8
	c-3.9,1.8-7.9,2.7-11.9,2.7h-10.7v-86.4l-29.8,29.8v25.6c0.1,0.6,0.2,1.2,0.3,1.7c0.1,1.1,0.2,2.2,0.3,3.4c0,1.9,0,3.8-0.3,5.7
	c-0.9,7.3-4,14.3-9.1,20.1c-0.7,0.7-1.4,1.5-2.2,2.2c-0.4,0.4-0.9,0.8-1.3,1.2l-1.5,1.3"/>
<g>
	<path class="st0" d="M-163.9,3482.1c0,0,0.1,0,0.2,0c0.4,0.1,0.9,0.2,1.3,0.3c0.3,0,0.7,0.2,1,0.3c0.3,0.1,0.6,0.3,0.9,0.5
		c0.3,0.1,0.6,0.3,0.9,0.6c0.6,0.3,1.1,0.8,1.6,1.3c0.3,0.2,0.5,0.5,0.7,0.8c1.7,1.9,2.6,4.4,2.6,7.1v23.2l-2.4,2.5v0l2.4-2.4v2.4
		l27-27.1l0.6-0.6l0.6-0.7l0.6-0.6l0,0l2.3-2.4c0.5-0.7,1-1.4,1.6-2c1-1,2.2-1.8,3.4-2.3c0.4-0.2,0.8-0.3,1.3-0.5
		c0.5-0.2,1-0.3,1.6-0.3c0.5-0.1,1.1-0.1,1.6-0.1h-51.6c0.5,0,0.9,0,1.3,0.1H-163.9z"/>
</g>
<path class="st0" d="M-174.5,3587.5l1.5-1.3c0.4-0.4,0.9-0.8,1.3-1.2c0.8-0.7,1.5-1.5,2.2-2.2c5.1-5.7,8.2-12.8,9.1-20.1
	c0.2-1.9,0.3-3.8,0.3-5.7c0-1.1-0.1-2.2-0.3-3.4c-0.1-0.6-0.1-1.1-0.3-1.7c-1-6-3.5-11.7-7.5-16.7l-24.2-29.9l-19.6-24.4l0,0
	l-23.3-29.2c-1.2-1.5-2.2-3.1-2.9-4.9c-1-2.5-1.4-5-1.4-7.6c0.1-5.2,2.2-10.3,6.3-14l-9.8,8.4c-0.4,0.4-0.9,0.7-1.3,1.2
	c-13,12.3-15.2,32.3-5.3,47.1v0c0.6,0.9,1.2,1.7,1.9,2.6l17.9,22.3l25.8,32l0,0l23.3,29.2c1.2,1.5,2.2,3.1,2.9,4.9
	c0.9,2.5,1.4,5,1.4,7.6c0,1.5-0.2,3-0.6,4.4c-0.2,0.9-0.5,1.7-0.8,2.5"/>
<path class="st0" d="M-234.4,3587.5c3.6-0.1,7.2-0.7,10.8-1.8c3.8-1.1,7.4-2.7,10.9-4.7c0,0,0.1,0,0.2-0.1c1.3-0.8,2.5-1.6,3.8-2.6
	c-0.6,0.4-1.3,0.7-1.9,1c-6.2,2.7-13.5,1.1-18-4.4l-6-7.4l-29.7-36.7l-0.3-0.3l-0.2-0.3l-3.1-3.8c-0.2-0.2-0.4-0.4-0.5-0.6
	c-4.1-5.6-3.8-13,0.3-18.3c0.7-0.9,1.6-1.8,2.5-2.5c-3.1,2.5-5.9,5.4-8.2,8.6c-2.8,3.8-5,7.9-6.4,12.2c-0.2,0.5-0.3,0.9-0.4,1.4v0
	h-19.7v-34.1c0-3.1,1.3-5.9,3.3-7.9c2-2,4.7-3.2,7.8-3.2h-51.9c6.1,0,11.1,5,11.1,11.1v78.8c0,6.1-5,11.1-11.1,11.1h51.9
	c-6.1,0-11.1-5-11.1-11.1v-34.5h17.8c-0.9,11.5,2.3,23.3,10.2,33c2,2.5,4.4,4.8,6.8,6.8c2.9,2.3,6,4.3,9.2,5.8
	c5.7,2.7,11.9,4.2,18.1,4.5"/>
</svg>
