<?xml version="1.0" encoding="utf-8"?>
<!-- Generator: Adobe Illustrator 19.0.0, SVG Export Plug-In . SVG Version: 6.00 Build 0)  -->
<svg version="1.1" id="Слой_1" xmlns="http://www.w3.org/2000/svg" xmlns:xlink="http://www.w3.org/1999/xlink" x="0px" y="0px"
	 viewBox="0 0 287.2 186" style="enable-background:new 0 0 287.2 186;" xml:space="preserve">
<style type="text/css">
	.st0{fill:#5D5D5D;}
	.st1{fill:#D1AB76;}
	.st2{fill:#FFFFFF;}
</style>
<path class="st0" d="M211.4,151c0.1,2.2,0,4.4-0.3,6.6c-1,8.3-4.5,16.4-10.4,22.9c-0.8,0.9-1.6,1.7-2.4,2.5c-0.5,0.5-1,0.9-1.5,1.4
	l-1.8,1.5h-1.8V151H211.4z"/>
<path class="st0" d="M190.9,180.8L190.9,180.8l-0.1,2.3c0.9-0.8,1.7-1.6,2.4-2.5C192.5,180.7,191.7,180.8,190.9,180.8 M203.6,147.2
	v10.4c0.3-2.2,0.4-4.4,0.3-6.6C203.9,149.8,203.8,148.5,203.6,147.2"/>
<path class="st1" d="M286.8,185.9h-99.5l1.8-1.5c0.5-0.4,1-0.9,1.5-1.4c0.9-0.8,1.7-1.6,2.4-2.5c5.9-6.6,9-14.6,10-22.9
	c0.3-2.2,0.5-9.1,0.4-10.4V77.7c0-7-5.7-12.7-12.7-12.7h-0.1h59.6c-3.5,0-6.7,1.4-9,3.7c-2.3,2.3-3.7,5.5-3.7,9v103h12.3
	c4.6,0,9.2-1,13.7-3.1c4.5-2,8.4-4.6,11.7-7.8c3.3-3.2,6-6.6,8.2-10.4c2.2-3.8,3.5-7.4,3.9-10.9
	C287.2,148.3,286.8,185.9,286.8,185.9"/>
<path class="st2" d="M203.9,151c0.1,2.2,0,4.4-0.3,6.6c-1,8.3-4.5,16.4-10.4,22.9c-0.8,0.9-1.6,1.7-2.4,2.5c-0.5,0.5-1,0.9-1.5,1.4
	l-1.8,1.5l-0.1,0.1h-3.7c1-2.5,1.6-5.3,1.6-8c0.1-3-0.5-5.9-1.6-8.7c-0.8-2-2-3.9-3.3-5.6l-26.7-33.5l-0.1,0L103.6,68
	C89.4,50.3,91.8,24.5,109,9.6L120.1,0c-4.7,4.3-7.1,10.1-7.3,16.1c-0.1,3,0.5,5.9,1.6,8.7c0.8,2,2,3.9,3.3,5.6l26.7,33.5l0.1,0
	L167,91.8l27.7,34.3c5,6.3,8,13.6,8.9,21.1C203.8,148.5,203.9,149.8,203.9,151"/>
<path class="st1" d="M127.9,68.7c2.3-2.3,5.5-3.7,9-3.7H77.3h0.1c7,0,12.7,5.7,12.7,12.7v37.5H90v5.2h0.1V168c0,2.2-0.6,4.3-1.5,6.1
	c-2.2,4-6.4,6.7-11.2,6.7h-0.1h59.6c-7,0-12.7-5.7-12.7-12.7V77.7C124.2,74.2,125.6,71,127.9,68.7 M48.7,168v-43.7h32v-7.5h-32V77.7
	c0-3.5,1.4-6.7,3.7-9c2.3-2.3,5.5-3.7,9-3.7H1.8h0.1c7,0,12.7,5.7,12.7,12.7V168c0,7-5.7,12.7-12.7,12.7H1.8h59.6
	C54.4,180.8,48.7,175.1,48.7,168"/>
<path class="st2" d="M190.8,65L190.8,65c7.1,0,12.8,5.7,12.8,12.7v29.4l36.1-36.3l0,0c0.5-0.8,1-1.4,1.7-2.1c2.3-2.3,5.5-3.7,9-3.7
	H190.8z"/>
<path class="st2" d="M155,174.5c-5.5,4.4-11.7,7.5-18.1,9.3c-4,1.2-8.2,1.9-12.3,2c-1.6,0.1-3.2,0.1-4.7,0
	c-11.2-0.5-22.2-4.5-31.3-11.8c-2.8-2.3-5.4-4.9-7.8-7.8c-10.8-13.4-14.1-30.4-10.4-45.9c0.4-1.7,0.9-3.5,1.5-5.2
	c3.1-9,8.8-17.4,16.7-23.8c-7.2,5.9-8.6,16.4-3.1,23.8c0.2,0.3,0.4,0.5,0.6,0.8l3.6,4.4l0.5,0.6l34.1,42l6.9,8.5
	C137,178.8,147.6,180.1,155,174.5"/>
</svg>
